<?xml version="1.0" encoding="UTF-8" standalone="no"?>
<svg version="1.1" width="128" height="128" viewBox="0 0 128 128" xmlns="http://www.w3.org/2000/svg" xmlns:cc="http://creativecommons.org/ns#" xmlns:dc="http://purl.org/dc/elements/1.1/" xmlns:rdf="http://www.w3.org/1999/02/22-rdf-syntax-ns#">
<metadata>
<rdf:RDF>
<cc:Work rdf:about="">
<dc:format>image/svg+xml</dc:format>
<dc:type rdf:resource="http://purl.org/dc/dcmitype/StillImage"/>
<dc:title/>
</cc:Work>
</rdf:RDF>
</metadata>
<g>
<circle cx="64" cy="64" r="64" fill="#333"/>
</g>
<g>
<g fill="#f40" style="font-feature-settings:normal;font-variant-caps:normal;font-variant-ligatures:normal;font-variant-numeric:normal" aria-label="VDF">
<path d="m38.072 77.867-7.8125-27.734h4.1797l6.4844 24.414h0.35156l6.4844-24.414h4.1797l-7.8125 27.734z" style=""/>
<path d="m59.576 77.867v-3.7109h3.0859q4.2773 0 6.4258-2.4414 2.168-2.4414 2.168-7.3242 0-5.293-2.168-7.9102-2.1484-2.6367-6.4258-2.6367h-3.0078l-0.46875-3.7109h3.4766q12.695 0 12.695 14.258 0 13.477-12.695 13.477zm-3.6328 0v-27.734h3.9062v27.734z" style=""/>
<path d="m79.381 77.867v-27.734h3.9062v27.734zm0-10.859v-3.7109h14.844v3.7109zm0-13.164v-3.7109h18.359v3.7109z" style=""/>
</g>
<g fill="#fd0" style="font-feature-settings:normal;font-variant-caps:normal;font-variant-ligatures:normal;font-variant-numeric:normal" aria-label="{">
<path d="m24.61 90.953q-4.7754 0-7.4121-2.8711-2.6074-2.8418-2.6074-7.9688 0-2.4609 0.61524-4.8633 0.61523-2.4023 0.61523-4.9805 0-1.6406-1.4062-2.5488-1.377-0.9375-3.252-1.2891-1.8457-0.38086-3.252-0.38086v-4.6289q1.0254 0 2.3438-0.26367 1.3477-0.29297 2.6074-0.82031 1.2891-0.55664 2.1094-1.3477 0.84961-0.79102 0.84961-1.7871 0-2.6953-0.61523-5.0391-0.61524-2.3438-0.61524-4.8047 0-4.9512 2.6074-7.6172 2.6367-2.6953 7.4121-2.6953 1.7285 0 2.8711 0.17578 1.1426 0.14648 2.1094 0.41016l-0.70312 4.9805q-1.0254-0.14648-1.9922-0.20508-0.9375-0.08789-1.7578-0.08789-2.0801 0-3.1934 1.3184-1.084 1.3184-1.084 3.7207 0 2.5488 0.67383 4.8633 0.67383 2.3145 0.67383 4.8633 0 2.9004-2.0215 4.5117-2.0215 1.582-5.6543 1.6406v0.99609q3.6328 0.05859 5.6543 1.7285 2.0215 1.6406 2.0215 4.4238 0 2.666-0.67383 4.9805-0.67383 2.3145-0.67383 4.7461 0 2.666 1.084 4.1309 1.1133 1.4355 3.1934 1.4355 0.82031 0 1.7578-0.08789 0.9668-0.08789 1.9922-0.20508l0.70312 4.9805q-0.9668 0.26367-2.1094 0.41016-1.1426 0.17578-2.8711 0.17578z" style=""/>
</g>
<g fill="#fd0" style="font-feature-settings:normal;font-variant-caps:normal;font-variant-ligatures:normal;font-variant-numeric:normal" aria-label="}">
<path d="m103.39 90.953q-1.6992 0-2.8711-0.17578-1.1426-0.14648-2.1094-0.41016l0.70312-4.9805q1.0254 0.11719 1.9629 0.20508 0.96679 0.08789 1.7871 0.08789 2.0801 0 3.1641-1.4355 1.1133-1.4648 1.1133-4.1309 0-2.4316-0.67383-4.7461-0.67383-2.3145-0.67383-4.9805 0-2.7832 2.0215-4.4238 2.0215-1.6699 5.6543-1.7285v-0.99609q-3.6328-0.05859-5.6543-1.6406-2.0215-1.6113-2.0215-4.5117 0-2.5488 0.67383-4.8633t0.67383-4.8633q0-2.4023-1.1133-3.7207-1.084-1.3184-3.1641-1.3184-0.82032 0-1.7871 0.08789-0.9375 0.05859-1.9629 0.20508l-0.70312-4.9805q0.9668-0.26367 2.1094-0.41016 1.1719-0.17578 2.8711-0.17578 4.7754 0 7.3828 2.6953 2.6367 2.666 2.6367 7.6172 0 2.4609-0.61523 4.8047-0.61524 2.3438-0.61524 5.0391 0 0.99609 0.82032 1.7871 0.8496 0.79102 2.1094 1.3477 1.2891 0.52734 2.6367 0.82031 1.3477 0.26367 2.3438 0.26367v4.6289q-1.4062 0-3.2812 0.38086-1.8457 0.35156-3.252 1.2891-1.377 0.9082-1.377 2.5488 0 2.5781 0.61524 4.9805 0.61523 2.4023 0.61523 4.8633 0 5.127-2.6367 7.9688-2.6074 2.8711-7.3828 2.8711z" style=""/>
</g>
</g>
</svg>
