<?xml version="1.0" encoding="UTF-8" standalone="no"?>
<svg xmlns:dc="http://purl.org/dc/elements/1.1/" xmlns:cc="http://creativecommons.org/ns#" xmlns:rdf="http://www.w3.org/1999/02/22-rdf-syntax-ns#" xmlns:svg="http://www.w3.org/2000/svg" xmlns="http://www.w3.org/2000/svg" width="128" height="128" viewBox="0 0 128 128" version="1.1" id="svg8">
<defs id="defs14" />
<metadata id="metadata5">
<rdf:RDF>
<cc:Work rdf:about="">
<dc:format>image/svg+xml</dc:format>
<dc:type rdf:resource="http://purl.org/dc/dcmitype/StillImage" />
<dc:title></dc:title>
</cc:Work>
</rdf:RDF>
</metadata>
<g id="background" style="display:inline">
<circle style="opacity:1;fill:#333333;fill-opacity:1;fill-rule:nonzero;stroke:#999999;stroke-width:4;stroke-linecap:butt;stroke-linejoin:round;stroke-miterlimit:4;stroke-dasharray:none;stroke-dashoffset:0;stroke-opacity:1" id="path811" cx="64" cy="64" r="62" />
</g>
<g id="text">
<g id="text-vdf" style="font-style:normal;font-variant:normal;font-weight:normal;font-stretch:normal;font-size:40px;line-height:1.25;font-family:'Cascadia Code';font-variant-ligatures:normal;font-variant-caps:normal;font-variant-numeric:normal;font-feature-settings:normal;text-align:start;letter-spacing:0px;word-spacing:0px;writing-mode:lr-tb;text-anchor:start;fill:#ff4000;fill-opacity:1;stroke:none" aria-label="VDF">
<path id="path821" style="" d="m 38.072266,77.867187 -7.8125,-27.734375 h 4.179687 l 6.484375,24.414063 h 0.351563 l 6.484375,-24.414063 h 4.179687 l -7.8125,27.734375 z" />
<path id="path823" style="" d="M 59.576172,77.867187 V 74.15625 h 3.085937 q 4.277344,0 6.425782,-2.441406 2.167968,-2.441407 2.167968,-7.324219 0,-5.292969 -2.167968,-7.910156 -2.148438,-2.636719 -6.425782,-2.636719 h -3.007812 l -0.46875,-3.710938 h 3.476562 q 12.695313,0 12.695313,14.257813 0,13.476562 -12.695313,13.476562 z m -3.632813,0 V 50.132812 h 3.90625 v 27.734375 z" />
<path id="path825" style="" d="M 79.380859,77.867187 V 50.132812 h 3.90625 v 27.734375 z m 0,-10.859375 v -3.710937 h 14.84375 v 3.710937 z m 0,-13.164062 v -3.710938 h 18.359375 v 3.710938 z" />
</g>
<g id="text831" style="font-style:normal;font-variant:normal;font-weight:normal;font-stretch:normal;font-size:60px;line-height:1.25;font-family:'Cascadia Code';font-variant-ligatures:normal;font-variant-caps:normal;font-variant-numeric:normal;font-feature-settings:normal;text-align:start;letter-spacing:0px;word-spacing:0px;writing-mode:lr-tb;text-anchor:start;fill:#ffe000;fill-opacity:1;stroke:none" aria-label="{">
<path id="path828" style="" d="m 24.609653,90.953125 q -4.77539,0 -7.412109,-2.871094 -2.607422,-2.841797 -2.607422,-7.96875 0,-2.460937 0.615235,-4.863281 0.615234,-2.402344 0.615234,-4.980469 0,-1.640625 -1.40625,-2.548828 -1.376953,-0.9375 -3.251953,-1.289062 -1.8457033,-0.38086 -3.2519533,-0.38086 v -4.628906 q 1.0253906,0 2.3437503,-0.263672 1.347656,-0.292969 2.607422,-0.820312 1.289062,-0.556641 2.109375,-1.347657 0.849609,-0.791015 0.849609,-1.787109 0,-2.695313 -0.615234,-5.039063 -0.615235,-2.34375 -0.615235,-4.804687 0,-4.951172 2.607422,-7.617188 2.636719,-2.695312 7.412109,-2.695312 1.728516,0 2.871094,0.175781 1.142578,0.146485 2.109375,0.410156 l -0.703125,4.980469 q -1.02539,-0.146484 -1.992187,-0.205078 -0.9375,-0.08789 -1.757813,-0.08789 -2.080078,0 -3.193359,1.31836 -1.083985,1.318359 -1.083985,3.720703 0,2.548828 0.673829,4.863281 0.673828,2.314453 0.673828,4.863281 0,2.900391 -2.021485,4.511719 -2.021484,1.582031 -5.654297,1.640625 v 0.996094 q 3.632813,0.05859 5.654297,1.728516 2.021485,1.640625 2.021485,4.423828 0,2.666015 -0.673828,4.980468 -0.673829,2.314454 -0.673829,4.746094 0,2.666016 1.083985,4.13086 1.113281,1.435546 3.193359,1.435546 0.820313,0 1.757813,-0.08789 0.966797,-0.08789 1.992187,-0.205078 l 0.703125,4.980468 q -0.966797,0.263672 -2.109375,0.410157 -1.142578,0.175781 -2.871094,0.175781 z" />
</g>
<g id="text839" style="font-style:normal;font-variant:normal;font-weight:normal;font-stretch:normal;font-size:60px;line-height:1.25;font-family:'Cascadia Code';font-variant-ligatures:normal;font-variant-caps:normal;font-variant-numeric:normal;font-feature-settings:normal;text-align:start;letter-spacing:0px;word-spacing:0px;writing-mode:lr-tb;text-anchor:start;fill:#ffe000;fill-opacity:1;stroke:none" aria-label="}">
<path id="path831" style="" d="m 103.39035,90.953125 q -1.69922,0 -2.87109,-0.175781 -1.142582,-0.146485 -2.109378,-0.410157 l 0.703125,-4.980468 q 1.025393,0.117187 1.962893,0.205078 0.96679,0.08789 1.78711,0.08789 2.08007,0 3.16406,-1.435546 1.11328,-1.464844 1.11328,-4.13086 0,-2.43164 -0.67383,-4.746094 -0.67383,-2.314453 -0.67383,-4.980468 0,-2.783203 2.02149,-4.423828 2.02148,-1.669922 5.6543,-1.728516 v -0.996094 q -3.63282,-0.05859 -5.6543,-1.640625 -2.02149,-1.611328 -2.02149,-4.511719 0,-2.548828 0.67383,-4.863281 0.67383,-2.314453 0.67383,-4.863281 0,-2.402344 -1.11328,-3.720703 -1.08399,-1.31836 -3.16406,-1.31836 -0.82032,0 -1.78711,0.08789 -0.9375,0.05859 -1.962893,0.205078 l -0.703125,-4.980469 q 0.966796,-0.263671 2.109378,-0.410156 1.17187,-0.175781 2.87109,-0.175781 4.77539,0 7.38281,2.695312 2.63672,2.666016 2.63672,7.617188 0,2.460937 -0.61523,4.804687 -0.61524,2.34375 -0.61524,5.039063 0,0.996094 0.82032,1.787109 0.8496,0.791016 2.10937,1.347657 1.28906,0.527343 2.63672,0.820312 1.34766,0.263672 2.34375,0.263672 v 4.628906 q -1.40625,0 -3.28125,0.38086 -1.8457,0.351562 -3.25195,1.289062 -1.37696,0.908203 -1.37696,2.548828 0,2.578125 0.61524,4.980469 0.61523,2.402344 0.61523,4.863281 0,5.126953 -2.63672,7.96875 -2.60742,2.871094 -7.38281,2.871094 z" />
</g>
</g>
</svg>
